<svg width="36" height="33" viewBox="0 0 36 33" fill="none" xmlns="http://www.w3.org/2000/svg">
<g clip-path="url(#clip0_14_162)">
<path d="M34.5624 25.3471C33.9042 26.7032 32.2066 27.9314 30.6125 28.2026C30.4494 28.2305 26.5535 28.875 18.0113 28.875H17.9888C9.44785 28.875 5.5486 28.2305 5.3866 28.2037C3.79247 27.9314 2.09372 26.7032 1.43447 25.3461C1.37597 25.2254 0.0012207 22.3235 0.0012207 16.5C0.0012207 10.6765 1.37597 7.77356 1.43447 7.65291C2.09372 6.29578 3.79247 5.06859 5.3866 4.79738C5.5486 4.76953 9.44785 4.125 17.9888 4.125C26.5535 4.125 30.4493 4.76953 30.6113 4.79634C32.2066 5.06859 33.9042 6.29578 34.5635 7.65188C34.622 7.77356 36.0001 10.6765 36.0001 16.5C36.0001 22.3235 34.622 25.2254 34.5624 25.3471ZM32.5047 8.48719C32.1537 7.76428 31.0535 6.97022 30.2007 6.82481C30.1647 6.81863 26.3093 6.1875 18.0113 6.1875C9.69197 6.1875 5.83322 6.81863 5.7961 6.82481C4.94335 6.97022 3.84422 7.76428 3.4921 8.49131C3.48085 8.51297 2.25235 11.1674 2.25235 16.5C2.25235 21.8316 3.48085 24.486 3.49435 24.5128C3.84422 25.2357 4.94335 26.0298 5.79722 26.1752C5.83322 26.1814 9.69197 26.8125 17.9888 26.8125H18.0113C26.3093 26.8125 30.1647 26.1814 30.2019 26.1752C31.0546 26.0298 32.1537 25.2357 32.5058 24.5087C32.5171 24.486 33.7478 21.8316 33.7478 16.5C33.7478 11.1684 32.5171 8.51297 32.5047 8.48719ZM15.2337 22.5287C15.0515 22.6349 14.8422 22.6875 14.6341 22.6875C14.4473 22.6875 14.2606 22.6452 14.0907 22.5586C13.7318 22.3771 13.5091 22.0316 13.5091 21.6562V11.3438C13.5091 10.9694 13.7296 10.625 14.0862 10.4435C14.4428 10.2609 14.8805 10.2692 15.2258 10.4662L24.2472 15.577C24.5768 15.7637 24.7793 16.0937 24.7805 16.4495C24.7816 16.8053 24.5836 17.1373 24.2551 17.326L15.2337 22.5287ZM15.7602 13.1938V19.7887L21.5292 16.4618L15.7602 13.1938Z" fill="white"/>
</g>
<defs>
<clipPath id="clip0_14_162">
<rect width="36" height="33" fill="white"/>
</clipPath>
</defs>
</svg>
