<svg width="36" height="37" viewBox="0 0 36 37" fill="none" xmlns="http://www.w3.org/2000/svg">
<path fill-rule="evenodd" clip-rule="evenodd" d="M3 9.24992C3 5.84416 5.68629 3.08325 9 3.08325H27C30.3136 3.08325 33 5.84416 33 9.24992V27.7499C33 31.1556 30.3136 33.9166 27 33.9166H9C5.68629 33.9166 3 31.1556 3 27.7499V9.24992ZM9 6.16658C7.34314 6.16658 6 7.54704 6 9.24992V27.7499C6 29.4528 7.34314 30.8332 9 30.8332H27C28.6569 30.8332 30 29.4528 30 27.7499V9.24992C30 7.54704 28.6569 6.16658 27 6.16658H9ZM18 13.8749C15.5146 13.8749 13.5 15.9455 13.5 18.4999C13.5 21.0543 15.5146 23.1249 18 23.1249C20.4853 23.1249 22.5 21.0543 22.5 18.4999C22.5 15.9455 20.4853 13.8749 18 13.8749ZM10.5 18.4999C10.5 14.2427 13.8579 10.7916 18 10.7916C22.1421 10.7916 25.5 14.2427 25.5 18.4999C25.5 22.7571 22.1421 26.2082 18 26.2082C13.8579 26.2082 10.5 22.7571 10.5 18.4999ZM26.25 12.3333C27.4926 12.3333 28.5 11.2979 28.5 10.0208C28.5 8.74359 27.4926 7.70825 26.25 7.70825C25.0074 7.70825 24 8.74359 24 10.0208C24 11.2979 25.0074 12.3333 26.25 12.3333Z" fill="white"/>
</svg>
