<svg width="27" height="35" viewBox="0 0 27 35" fill="none" xmlns="http://www.w3.org/2000/svg">
<path d="M13.8837 29.1024H2.3627V3.09665C2.3627 2.91609 2.47227 2.77332 2.60762 2.77332H18.4244C18.5598 2.77332 18.6693 2.92029 18.6693 3.09665V11.0752H20.1453V3.09665C20.1453 1.84109 19.3719 0.820679 18.4244 0.820679H2.60762C1.65693 0.820679 0.886719 1.84109 0.886719 3.09665V32.0293C0.886719 33.2848 1.66016 34.3052 2.60762 34.3052H14.1802C13.99 33.8181 13.8805 33.2638 13.8805 32.6801V29.1024H13.8837ZM10.5772 33.1421C10.0294 33.1421 9.58145 32.5542 9.58145 31.8277C9.58145 31.1012 10.0262 30.5134 10.5772 30.5134C11.1251 30.5134 11.573 31.1012 11.573 31.8277C11.5698 32.5542 11.1251 33.1421 10.5772 33.1421ZM24.8504 13.0278H16.5907C15.9107 13.0278 15.3597 13.7585 15.3597 14.6529V32.6801C15.3597 33.5746 15.9107 34.3052 16.5907 34.3052H24.8504C25.5304 34.3052 26.0814 33.5746 26.0814 32.6801V14.6529C26.0814 13.7543 25.5304 13.0278 24.8504 13.0278ZM20.7222 33.3268C20.3129 33.3268 19.9842 32.8901 19.9842 32.3526C19.9842 31.8151 20.3161 31.3784 20.7222 31.3784C21.1282 31.3784 21.4602 31.8151 21.4602 32.3526C21.4602 32.8901 21.1282 33.3268 20.7222 33.3268ZM24.6055 30.4H16.8356V14.9762H24.6055V30.4Z" fill="white"/>
</svg>
