<svg width="35" height="36" viewBox="0 0 35 36" fill="none" xmlns="http://www.w3.org/2000/svg">
<path fill-rule="evenodd" clip-rule="evenodd" d="M17.4949 0C7.84748 0 0 8.07395 0 17.9998C0 21.9363 1.23422 25.587 3.3323 28.5502L1.15178 35.2378L7.87824 33.0267C10.6448 34.9102 13.9464 36 17.5051 36C27.1525 36 35 27.9257 35 18.0002C35 8.07427 27.1525 0.000297546 17.5051 0.000297546L17.4949 0ZM12.6094 9.14312C12.27 8.3072 12.0129 8.27555 11.4988 8.25405C11.3238 8.2436 11.1287 8.23315 10.9124 8.23315C10.2437 8.23315 9.5444 8.43414 9.12264 8.87853C8.60857 9.41819 7.3331 10.6773 7.3331 13.2594C7.3331 15.8415 9.16385 18.3388 9.41059 18.6882C9.66777 19.037 12.9797 24.4127 18.1222 26.6036C22.1436 28.3179 23.3369 28.159 24.2521 27.958C25.5891 27.6617 27.2657 26.6454 27.6875 25.4183C28.1093 24.1905 28.1093 23.1429 27.9856 22.9207C27.8622 22.6985 27.5226 22.5719 27.0085 22.307C26.4945 22.0424 23.995 20.7725 23.5218 20.6032C23.0588 20.4234 22.6168 20.487 22.2673 20.995C21.7735 21.704 21.2902 22.4237 20.8992 22.8574C20.5907 23.196 20.0865 23.2384 19.665 23.0584C19.0992 22.8153 17.5155 22.2433 15.5611 20.455C14.0491 19.069 13.0207 17.3443 12.7226 16.8259C12.4242 16.297 12.6918 15.9896 12.9281 15.7041C13.1852 15.3759 13.432 15.1433 13.6892 14.8363C13.9464 14.5295 14.0903 14.3707 14.2549 14.0108C14.43 13.6617 14.3063 13.3018 14.1829 13.0372C14.0596 12.7726 13.0311 10.1905 12.6094 9.14312Z" fill="#67C15E"/>
</svg>
